<?xml version="1.0" encoding="UTF-8" standalone="no"?>
<!-- Created with Inkscape (http://www.inkscape.org/) -->

<svg
   width="45.914066mm"
   height="45.91407mm"
   viewBox="0 0 45.914066 45.91407"
   version="1.1"
   id="svg1"
   inkscape:version="1.3.2 (1:1.3.2+202311252150+091e20ef0f)"
   sodipodi:docname="TRailExample.svg"
   xmlns:inkscape="http://www.inkscape.org/namespaces/inkscape"
   xmlns:sodipodi="http://sodipodi.sourceforge.net/DTD/sodipodi-0.dtd"
   xmlns="http://www.w3.org/2000/svg"
   xmlns:svg="http://www.w3.org/2000/svg">
  <sodipodi:namedview
     id="namedview1"
     pagecolor="#ffffff"
     bordercolor="#000000"
     borderopacity="0.25"
     inkscape:showpageshadow="2"
     inkscape:pageopacity="0.0"
     inkscape:pagecheckerboard="0"
     inkscape:deskcolor="#d1d1d1"
     inkscape:document-units="mm"
     inkscape:zoom="0.72248176"
     inkscape:cx="375.78803"
     inkscape:cy="540.49807"
     inkscape:window-width="1920"
     inkscape:window-height="1008"
     inkscape:window-x="1920"
     inkscape:window-y="0"
     inkscape:window-maximized="1"
     inkscape:current-layer="layer1" />
  <defs
     id="defs1" />
  <g
     inkscape:label="Layer 1"
     inkscape:groupmode="layer"
     id="layer1"
     transform="translate(-5.4639419,-5.6443252)">
    <path
       id="rect7"
       style="fill:#000000;stroke:#000000;stroke-width:0.427642"
       d="m 8.7893069,5.8581462 c -1.724191,0 -3.111544,1.38737 -3.111544,3.11155 V 23.968296 h 5.3424411 c 1.021892,0.0299 0.941609,-0.0524 0.938103,-0.85633 v -1.74804 H 9.8743679 v -3.86401 c 0,0 -0.09276,-1.6758 1.3646151,-1.71931 1.457446,-0.0435 2.454471,0.19557 3.3027,1.19556 l 5.599891,5.54133 c 0.736123,0.74522 1.157351,1.48424 1.133681,2.53697 v 7.0507 c 0.03741,0.69289 -0.276257,1.42869 -1.133681,2.53807 l -5.599891,5.54133 c -0.848206,1 -1.845254,1.23906 -3.3027,1.19555 -1.4574451,-0.0435 -1.3646151,-1.7193 -1.3646151,-1.7193 v -3.86401 h 2.0839391 v -1.74693 c 0.0021,-0.80393 0.08376,-0.8863 -0.938103,-0.85635 H 5.6777629 v 15.03951 c 0,1.72419 1.387353,3.11154 3.111544,3.11154 H 23.910564 v -5.26068 c 0.02995,-1.02198 -0.05241,-0.94089 -0.856336,-0.93811 h -1.746929 v 2.08285 h -3.864014 c 0,0 -1.675793,0.0939 -1.719305,-1.36351 -0.04351,-1.45746 0.195567,-2.45448 1.195557,-3.30271 l 5.541332,-5.59989 c 1.109373,-0.85743 1.844078,-1.17114 2.536967,-1.13368 h 7.050696 c 1.052718,-0.0236 1.792856,0.39756 2.538071,1.13368 l 5.540227,5.59989 c 0.999981,0.84823 1.240173,1.84526 1.196661,3.30271 -0.04351,1.45737 -1.719304,1.36351 -1.719304,1.36351 h -3.864015 v -2.08285 H 33.99214 c -0.803938,-0.004 -0.886293,-0.0839 -0.856336,0.93811 v 5.26068 h 14.916841 c 1.724175,0 3.111542,-1.38735 3.111542,-3.11154 v -15.03951 h -5.136919 c -1.021967,-0.0299 -0.940883,0.0524 -0.938103,0.85635 v 1.74693 h 2.082834 v 3.86401 c 0,0 0.09394,1.6758 -1.36351,1.7193 -1.457454,0.0435 -2.454474,-0.19555 -3.3027,-1.19555 l -5.600997,-5.54133 c -0.857429,-1.10938 -1.170038,-1.84518 -1.132576,-2.53807 v -7.0507 c -0.02366,-1.05272 0.396461,-1.79175 1.132576,-2.53697 l 5.600997,-5.54133 c 0.848233,-0.99998 1.845253,-1.23907 3.3027,-1.19556 1.457382,0.0435 1.36351,1.71931 1.36351,1.71931 v 3.86401 h -2.082834 v 1.74804 c -0.0035,0.80393 -0.08379,0.88629 0.938103,0.85633 h 5.136919 V 8.9696962 c 0,-1.72418 -1.387367,-3.11155 -3.111542,-3.11155 H 33.135804 v 5.2186898 c -0.02995,1.02189 0.0524,0.94161 0.856336,0.9381 h 1.748032 V 9.9309962 h 3.864015 c 0,0 1.6758,-0.0928 1.719304,1.3646198 0.04351,1.45744 -0.196676,2.45447 -1.196661,3.3027 l -5.540227,5.59989 c -0.74522,0.73612 -1.485349,1.15735 -2.538071,1.13368 h -7.050696 c -0.692894,0.0374 -1.42759,-0.27626 -2.536967,-1.13368 l -5.541332,-5.59989 c -0.999994,-0.84821 -1.239066,-1.84526 -1.195557,-3.3027 0.04351,-1.4574398 1.719305,-1.3646198 1.719305,-1.3646198 h 3.864014 v 2.0839398 h 1.746929 c 0.803932,0.002 0.886294,0.0838 0.856336,-0.9381 V 5.8581462 Z m 1.2154451,2.41211 h 1.982284 c 0.868542,0 1.567925,0.69938 1.567925,1.56793 v 1.8463698 c 0,0.86855 -0.699383,1.56793 -1.567925,1.56793 h -1.982284 c -0.8685421,0 -1.5679251,-0.69938 -1.5679251,-1.56793 V 9.8381862 c 0,-0.86855 0.699383,-1.56793 1.5679251,-1.56793 z m 35.351812,0 h 1.983387 c 0.868551,0 1.567927,0.69938 1.567927,1.56793 v 1.8463698 c 0,0.86855 -0.699376,1.56793 -1.567927,1.56793 h -1.983387 c -0.868553,0 -1.566822,-0.69938 -1.566822,-1.56793 V 9.8381862 c 0,-0.86855 0.698269,-1.56793 1.566822,-1.56793 z M 28.121534,24.936236 a 3.3120002,3.3120002 0 0 1 3.312644,3.31154 3.3120002,3.3120002 0 0 1 -3.312644,3.31154 3.3120002,3.3120002 0 0 1 -3.311541,-3.31154 3.3120002,3.3120002 0 0 1 3.311541,-3.31154 z M 9.5649809,43.923716 H 11.54837 c 0.868551,0 1.56682,0.69939 1.56682,1.56793 v 1.84638 c 0,0.86854 -0.698269,1.56793 -1.56682,1.56793 H 9.5649809 c -0.868535,0 -1.567924,-0.69939 -1.567924,-1.56793 v -1.84638 c 0,-0.86854 0.699389,-1.56793 1.567924,-1.56793 z m 36.2070431,0 h 1.982284 c 0.868538,0 1.567925,0.69939 1.567925,1.56793 v 1.84638 c 0,0.86854 -0.699387,1.56793 -1.567925,1.56793 h -1.982284 c -0.868536,0 -1.567925,-0.69939 -1.567925,-1.56793 v -1.84638 c 0,-0.86854 0.699389,-1.56793 1.567925,-1.56793 z" />
  </g>
</svg>
